<svg width="44" height="43" viewBox="0 0 44 43" fill="none" xmlns="http://www.w3.org/2000/svg">
<path d="M24.3283 34.9283C24.3696 30.7062 23.2992 27.2727 21.9376 27.2594C20.5759 27.2462 19.4386 30.6581 19.3974 34.8801C19.3561 39.1023 20.4265 42.5358 21.7881 42.5491C23.1498 42.5624 24.2871 39.1505 24.3283 34.9283Z" fill="#FF6B18"/>
<path d="M16.4312 33.9694C18.7488 30.4399 19.7048 26.9728 18.5665 26.2254C17.4282 25.478 14.6267 27.7333 12.3093 31.2628C9.9917 34.7923 9.0357 38.2593 10.1739 39.0068C11.3123 39.7542 14.1137 37.4989 16.4312 33.9694Z" fill="#FF6B18"/>
<path d="M10.2969 28.9056C14.1548 27.1896 16.8336 24.7898 16.2801 23.5456C15.7267 22.3014 12.1507 22.684 8.29273 24.4C4.43484 26.116 1.75605 28.5158 2.30947 29.76C2.86289 31.0042 6.43897 30.6216 10.2969 28.9056Z" fill="#FF6B18"/>
<path d="M15.8171 20.0566C16.0242 18.7107 12.8091 17.0989 8.636 16.4566C4.46277 15.8142 0.911813 16.3846 0.704663 17.7305C0.497523 19.0764 3.71262 20.688 7.88582 21.3304C12.059 21.9727 15.61 21.4023 15.8171 20.0566Z" fill="#FF6B18"/>
<path d="M17.3154 16.8503C18.2172 15.8301 16.3834 12.7362 13.2196 9.94C10.0558 7.1439 6.76005 5.70432 5.85828 6.72465C4.95652 7.74501 6.79026 10.8389 9.9541 13.635C13.1179 16.4312 16.4137 17.8707 17.3154 16.8503Z" fill="#FF6B18"/>
<path d="M20.2993 14.9766C21.6096 14.6058 21.7397 11.0117 20.5901 6.94888C19.4405 2.88608 17.4463 -0.106897 16.136 0.263863C14.8258 0.634633 14.6956 4.22874 15.8452 8.2916C16.9948 12.3543 18.989 15.3473 20.2993 14.9766Z" fill="#FF6B18"/>
<path d="M28.4017 8.418C29.6313 4.37864 29.5721 0.782645 28.2694 0.386125C26.9666 -0.0104146 24.9138 2.94266 23.6843 6.982C22.4548 11.0213 22.514 14.6173 23.8167 15.0138C25.1195 15.4104 27.1723 12.4573 28.4017 8.418Z" fill="#FF6B18"/>
<path d="M34.1913 13.876C37.4092 11.1422 39.3031 8.0848 38.4214 7.04704C37.5397 6.00928 34.2164 7.38419 30.9986 10.1179C27.7807 12.8517 25.8869 15.9091 26.7686 16.9469C27.6502 17.9846 30.9735 16.6098 34.1913 13.876Z" fill="#FF6B18"/>
<path d="M36.1056 21.5998C40.2907 21.0398 43.5369 19.4919 43.3563 18.1421C43.1758 16.7925 39.6368 16.1523 35.4517 16.7121C31.2667 17.272 28.0204 18.82 28.201 20.1697C28.3816 21.5194 31.9205 22.1597 36.1056 21.5998Z" fill="#FF6B18"/>
<path d="M41.5043 30.1457C42.0822 28.9127 39.4513 26.4607 35.6279 24.6689C31.8047 22.8771 28.2368 22.4242 27.659 23.6571C27.0811 24.8902 29.7121 27.3423 33.5354 29.1341C37.3586 30.9258 40.9265 31.3788 41.5043 30.1457Z" fill="#FF6B18"/>
<path d="M33.4622 39.2435C34.615 38.5187 33.7275 35.0334 31.4801 31.4589C29.2326 27.8845 26.4761 25.5744 25.3233 26.2992C24.1706 27.024 25.058 30.5093 27.3055 34.0838C29.5529 37.6583 32.3094 39.9684 33.4622 39.2435Z" fill="#FF6B18"/>
</svg>
